# xmcd
#
# Track frame offsets:
#	150
#	18868
#	33507
#	41966
#	49959
#	59468
#	68353
#	84852
#	99899
#	111950
#	125228
#	143124
#	154860
#	167023
#	182887
#
# Disc length: 2453 seconds
#
# Revision: 1
# Processed by: cddbd v1.5.2PL0 Copyright (c) Steve Scherf et al.
# Submitted via: audiograbber 1.83.01
#
DISCID=c909930f
DTITLE=Les Batteux-Slaques - On vient de loin
DYEAR=2010
DGENRE=Country
TTITLE0=La cabane
TTITLE1=La graine à mon beau-frère
TTITLE2=La grosse torche
TTITLE3=Melon le quêteux
TTITLE4=Reel à Melon
TTITLE5=L'armée du Canada
TTITLE6=L'errant
TTITLE7=Coutumance
TTITLE8=L'île de Brébat
TTITLE9=Dairy Queen
TTITLE10=Chérie ma pitoune
TTITLE11=Manger une clown
TTITLE12=Bye bye enfance
TTITLE13=La réussite
TTITLE14=Bonus
EXTD=
EXTT0=
EXTT1=
EXTT2=
EXTT3=
EXTT4=
EXTT5=
EXTT6=
EXTT7=
EXTT8=
EXTT9=
EXTT10=
EXTT11=
EXTT12=
EXTT13=
EXTT14=
PLAYORDER=
